<svg xmlns="http://www.w3.org/2000/svg" viewBox="0 0 385.63 427.8"><defs><style>.a{fill:#4babd0;}.b{fill:#fec901;}.c{fill:#4053a0;}.d{fill:#454444;}</style></defs><title>logotipo</title><polygon class="a" points="194.16 0 36.28 85.36 201.84 176.98 352.04 89.83 194.16 0"/><polygon class="b" points="32.49 89.61 35.74 268.73 194.29 350.98 196.84 182.15 32.49 89.61"/><polygon class="c" points="355.55 96.91 204.31 184.31 201.26 351.86 355.55 265.48 355.55 202.71 355.55 179.71 304.69 210.13 307.12 230.85 331.2 217.32 330.79 247.49 250.03 292.8 250.03 204.06 355.55 145.35 355.55 96.91"/><path class="d" d="M115.87,438.67a1.38,1.38,0,0,1-2.23.17,21,21,0,0,0-4.16-2.63,20.76,20.76,0,0,0-4.68-1.47,18.16,18.16,0,0,0-7.5.19,19.42,19.42,0,0,0-6.59,2.93,19.07,19.07,0,0,0-5,5.19,18.88,18.88,0,0,0-2.56,14.45,18.92,18.92,0,0,0,2.94,6.6,18.61,18.61,0,0,0,5.18,5,19.17,19.17,0,0,0,14.46,2.54,19.45,19.45,0,0,0,6.6-2.92,18.31,18.31,0,0,0,7.32-10.31h-13.5a1.6,1.6,0,1,1,0-3.19h15.62l.13,0a1.43,1.43,0,0,1,1.3,1.85,21.59,21.59,0,0,1-3.21,8.13,22.28,22.28,0,0,1-5.84,6.08A22,22,0,0,1,97.7,475a21.5,21.5,0,0,1-8.13-3.17,22,22,0,0,1-9.48-13.59,21.57,21.57,0,0,1-.22-8.74A20.93,20.93,0,0,1,83,441.34a22.31,22.31,0,0,1,13.57-9.5,21.44,21.44,0,0,1,8.75-.21,23,23,0,0,1,5.48,1.72,22.34,22.34,0,0,1,4.83,3.09A1.42,1.42,0,0,1,115.87,438.67Z" transform="translate(-79.53 -47.55)"/><path class="d" d="M125.11,465.54a1.39,1.39,0,0,1,1.57-1.57h1.88l14.28-31.74a1.41,1.41,0,0,1,2.1-.81,1.63,1.63,0,0,1,.79.81L160,464h1.88a1.4,1.4,0,0,1,1.59,1.57,1.41,1.41,0,0,1-1.59,1.6h-.46l2.66,5.92a1.36,1.36,0,0,1-.78,2.08,1.42,1.42,0,0,1-2.1-.78L158,467.14H130.61l-3.27,7.22a1.57,1.57,0,1,1-2.86-1.3l2.66-5.92h-.46A1.4,1.4,0,0,1,125.11,465.54ZM156.54,464l-12.25-27.25L132,464Z" transform="translate(-79.53 -47.55)"/><path class="d" d="M190.31,434.44a10.77,10.77,0,0,1-1.75,16.64,13.13,13.13,0,0,1,3.19,2.33,12.82,12.82,0,0,1-9.07,21.88h-15.3a1.58,1.58,0,1,1,0-3.16h2.49V434.46h-2.49a1.6,1.6,0,0,1,0-3.19h15.3A10.4,10.4,0,0,1,190.31,434.44Zm-15.4,16.81a1.41,1.41,0,0,1,1.59-1.59h6.18a7.45,7.45,0,0,0,5.4-2.23,7.3,7.3,0,0,0,2.2-5.37,7.53,7.53,0,0,0-7.6-7.6h-9.62v37.67h9.62a9.65,9.65,0,1,0,0-19.3H176.5A1.4,1.4,0,0,1,174.91,451.25Z" transform="translate(-79.53 -47.55)"/><path class="d" d="M224.88,472.94a1.57,1.57,0,1,1-2.73,1.54l-7.86-13.8a5.23,5.23,0,0,1-.88.15,12.42,12.42,0,0,1-2.16.18l-3.53,0h-2.65a1.58,1.58,0,1,1,0-3.16h6.18a11.72,11.72,0,0,0,1.7-.11,10.85,10.85,0,0,0,1.67-.38,11.63,11.63,0,0,0,8.31-11.19,11.68,11.68,0,0,0-11.68-11.68H201.6V473.7a1.58,1.58,0,1,1-3.16,0V432.87a1.41,1.41,0,0,1,1.59-1.6h11.22A14.87,14.87,0,0,1,223.19,455a14.74,14.74,0,0,1-5.83,4.69Z" transform="translate(-79.53 -47.55)"/><path class="d" d="M239.09,472.13h4.54a1.58,1.58,0,1,1,0,3.16H231.39a1.58,1.58,0,1,1,0-3.16h4.54V434.46h-4.54a1.6,1.6,0,0,1,0-3.19h12.24a1.6,1.6,0,0,1,0,3.19h-4.54Z" transform="translate(-79.53 -47.55)"/><path class="d" d="M284.84,432.87a1.41,1.41,0,0,1-1.6,1.59H254.42l17.7,17.71a1.38,1.38,0,0,1,0,2.23l-17.7,17.73h28.82a1.58,1.58,0,1,1,0,3.16H250.59a1.61,1.61,0,0,1-1.14-.45,1.51,1.51,0,0,1,0-2.26l19.3-19.3L249.48,434a1.6,1.6,0,0,1-.49-1.14,1.42,1.42,0,0,1,1.6-1.6h32.65A1.42,1.42,0,0,1,284.84,432.87Z" transform="translate(-79.53 -47.55)"/><path class="d" d="M288.69,473.7V432.87a1.58,1.58,0,1,1,3.16,0v39.26h20.87a1.58,1.58,0,1,1,0,3.16H290.28A1.41,1.41,0,0,1,288.69,473.7Z" transform="translate(-79.53 -47.55)"/><path class="d" d="M336.18,475.29a1.41,1.41,0,0,1-1.6-1.59V432.87a1.41,1.41,0,0,1,1.6-1.6H347.4a14.87,14.87,0,0,1,4.28,29.1,13.67,13.67,0,0,1-2.13.46,12.22,12.22,0,0,1-2.15.18l-3.53,0h-2.65a1.58,1.58,0,1,1,0-3.16h6.18a11.82,11.82,0,0,0,1.7-.11,10.85,10.85,0,0,0,1.67-.38,11.51,11.51,0,0,0,6-4.23,11.35,11.35,0,0,0,2.28-7,11.68,11.68,0,0,0-11.68-11.68h-9.65V473.7A1.4,1.4,0,0,1,336.18,475.29Z" transform="translate(-79.53 -47.55)"/><path class="d" d="M373.34,472.13h4.53a1.58,1.58,0,1,1,0,3.16H365.64a1.58,1.58,0,1,1,0-3.16h4.53V434.46h-4.53a1.6,1.6,0,1,1,0-3.19h12.23a1.6,1.6,0,1,1,0,3.19h-4.53Z" transform="translate(-79.53 -47.55)"/><path class="d" d="M401.38,475.29a1.4,1.4,0,0,1-1.6-1.57V434.46H384a1.58,1.58,0,0,1,0-3.16h34.73a1.58,1.58,0,1,1,0,3.16H403v39.26A1.39,1.39,0,0,1,401.38,475.29Z" transform="translate(-79.53 -47.55)"/><path class="d" d="M463.42,461.86a22.19,22.19,0,0,1-4.7,7,22,22,0,0,1-7,4.74,22.24,22.24,0,0,1-17.15,0,22.11,22.11,0,0,1-11.69-28.85,22,22,0,0,1,4.7-7,22.31,22.31,0,0,1,7-4.71,21.88,21.88,0,0,1,17.15,0,22,22,0,0,1,11.69,11.7,22.09,22.09,0,0,1,0,17.14Zm-2.91-1.25a18.84,18.84,0,0,0,0-14.64,18.93,18.93,0,0,0-10-10,18.92,18.92,0,0,0-14.67,0,19.14,19.14,0,0,0-10,10,18.74,18.74,0,0,0,4.06,20.63,18.18,18.18,0,0,0,6,4.06,19,19,0,0,0,14.67,0,18.73,18.73,0,0,0,6-4.06A19.11,19.11,0,0,0,460.51,460.61Z" transform="translate(-79.53 -47.55)"/></svg>